<?xml version="1.0" standalone="no"?><!DOCTYPE svg PUBLIC "-//W3C//DTD SVG 1.1//EN" "http://www.w3.org/Graphics/SVG/1.1/DTD/svg11.dtd"><svg t="1711036855143" class="icon" viewBox="0 0 1024 1024" version="1.1" xmlns="http://www.w3.org/2000/svg" p-id="4383" xmlns:xlink="http://www.w3.org/1999/xlink" width="25" height="25"><path d="M452.608 761.856c12.288 14.336 24.576 26.624 34.816 38.912 6.144 6.144 14.336 10.24 24.576 10.24 8.192 0 18.432-4.096 24.576-10.24 8.192-10.24 49.152-55.296 49.152-55.296 108.544-120.832 243.712-272.384 243.712-413.696C829.44 159.744 688.128 20.48 514.048 20.48S198.656 159.744 198.656 331.776c0 143.36 135.168 294.912 243.712 415.744l10.24 14.336z m61.44-679.936c67.584 0 131.072 26.624 178.176 73.728 47.104 47.104 73.728 108.544 73.728 176.128 0 131.072-102.4 239.616-184.32 329.728-24.576 24.576-47.104 49.152-63.488 71.68l-4.096 4.096-4.096-4.096c-14.336-18.432-34.816-38.912-55.296-61.44-81.92-86.016-192.512-204.8-192.512-337.92C262.144 194.56 374.784 81.92 514.048 81.92z m135.168 231.424c0-73.728-59.392-133.12-135.168-133.12-73.728 0-135.168 59.392-135.168 133.12s59.392 133.12 135.168 133.12c73.728 0 135.168-59.392 135.168-133.12z m-206.848 0c0-38.912 32.768-69.632 71.68-69.632s71.68 30.72 71.68 69.632-32.768 69.632-71.68 69.632-71.68-30.72-71.68-69.632z m579.584 647.168l-129.024-290.816c-4.096-12.288-16.384-18.432-28.672-18.432h-96.256c-16.384 0-30.72 14.336-30.72 30.72s14.336 30.72 30.72 30.72h75.776L944.128 942.08H81.92l110.592-227.328h63.488c16.384 0 30.72-14.336 30.72-30.72s-14.336-30.72-30.72-30.72h-81.92c-12.288 0-22.528 6.144-28.672 18.432l-141.312 286.72c-4.096 10.24-4.096 20.48 2.048 30.72 4.096 8.192 14.336 14.336 24.576 14.336h960.512c10.24 0 20.48-6.144 26.624-14.336 6.144-8.192 8.192-20.48 4.096-28.672z" fill="#d81e06" p-id="4384"></path></svg>
