<?xml version="1.0" standalone="no"?><!DOCTYPE svg PUBLIC "-//W3C//DTD SVG 1.1//EN"
        "http://www.w3.org/Graphics/SVG/1.1/DTD/svg11.dtd">
<svg t="1713369355341" class="icon" viewBox="0 0 1024 1024" version="1.1" xmlns="http://www.w3.org/2000/svg" p-id="5238"
     width="25" height="25" xmlns:xlink="http://www.w3.org/1999/xlink">
    <path d="M799.940258 0.094673a223.888476 223.888476 0 1 1-134.077212 403.19116l-31.9201 31.984068c14.009022 22.132975 22.069007 48.423879 22.069007 76.569859 0 26.290904-7.036495 50.918636-19.382345 72.156057l33.391366 33.327399a223.888476 223.888476 0 1 1-46.31293 44.26595l-30.640737-30.704705A143.288624 143.288624 0 0 1 512.083647 655.768066c-28.14598 0-54.372915-8.059985-76.569859-22.069007l-31.984068 31.984068a223.888476 223.888476 0 1 1-45.225472-45.225472l31.984068-31.984068A143.288624 143.288624 0 0 1 368.155341 511.83976c0-30.065024 9.211412-57.891163 24.947573-80.98366l-30.704705-30.704705a223.888476 223.888476 0 1 1 44.26595-46.312931l33.263431 33.455335A143.288624 143.288624 0 0 1 512.083647 367.911454c28.14598 0 54.436884 8.123953 76.633827 22.069007l31.984068-31.856132A223.888476 223.888476 0 0 1 799.940258 0.094673z m0 639.681359c-30.704705 0-59.426398 8.635698-83.798258 23.66821l59.874176 59.938143a79.96017 79.96017 0 1 1-48.359911 42.155002l-58.211004-58.274972A159.92034 159.92034 0 1 0 799.940258 639.776032z m-575.713222 0a159.92034 159.92034 0 1 0 133.437531 71.772248l-58.978621 58.978621a79.96017 79.96017 0 1 1-45.225472-45.28944l58.978621-58.978621A159.152722 159.152722 0 0 0 224.227036 639.776032z m0-575.713223a159.92034 159.92034 0 1 0 92.433956 290.415337l-58.211004-58.211004a79.96017 79.96017 0 1 1 42.091034-48.359911l59.938143 59.874175A159.92034 159.92034 0 0 0 224.227036 64.062809z m575.713222 0a159.92034 159.92034 0 0 0-133.437531 248.132399l58.978621-58.978622a79.96017 79.96017 0 1 1 45.28944 45.225473l-58.978621 58.978621A159.92034 159.92034 0 1 0 799.940258 64.062809z"
          fill="blue" p-id="5239"></path>
</svg>
